<svg width="228" height="44" viewBox="0 0 228 44" fill="none" xmlns="http://www.w3.org/2000/svg">
<circle cx="22" cy="22" r="21.5" stroke="#4285F4"/>
<path d="M18.8333 16.5152L28.3333 22L18.8333 27.4848L18.8333 16.5152Z" stroke="#4285F4"/>
<path d="M57.845 36C57.689 36 57.596 35.919 57.566 35.757L56.405 29.979C56.399 29.949 56.396 29.916 56.396 29.88C56.396 29.832 56.414 29.79 56.45 29.754C56.486 29.718 56.528 29.7 56.576 29.7H57.044C57.17 29.7 57.242 29.751 57.26 29.853L58.178 34.497L59.15 31.311C59.204 31.167 59.3 31.095 59.438 31.095H59.771C59.849 31.095 59.909 31.116 59.951 31.158C59.999 31.2 60.032 31.251 60.05 31.311L61.031 34.497L61.94 29.853C61.958 29.751 62.033 29.7 62.165 29.7H62.633C62.681 29.7 62.723 29.718 62.759 29.754C62.795 29.79 62.813 29.832 62.813 29.88L62.804 29.979L61.643 35.757C61.607 35.919 61.514 36 61.364 36H61.013C60.857 36 60.758 35.925 60.716 35.775L59.6 32.346L58.493 35.775C58.445 35.925 58.346 36 58.196 36H57.845ZM64.8059 36C64.7579 36 64.7159 35.982 64.6799 35.946C64.6439 35.91 64.6259 35.868 64.6259 35.82C64.6259 35.772 64.6289 35.739 64.6349 35.721L66.8669 29.898C66.9149 29.766 67.0109 29.7 67.1549 29.7H67.7669C67.9109 29.7 68.0069 29.766 68.0549 29.898L70.2779 35.721L70.2959 35.82C70.2959 35.868 70.2779 35.91 70.2419 35.946C70.2059 35.982 70.1639 36 70.1159 36H69.6569C69.5909 36 69.5399 35.985 69.5039 35.955C69.4679 35.919 69.4439 35.883 69.4319 35.847L68.9369 34.569H65.9849L65.4899 35.847C65.4779 35.883 65.4509 35.919 65.4089 35.955C65.3729 35.985 65.3249 36 65.2649 36H64.8059ZM68.6759 33.795L67.4609 30.6L66.2459 33.795H68.6759ZM73.6593 36C73.5993 36 73.5483 35.982 73.5063 35.946C73.4703 35.904 73.4523 35.853 73.4523 35.793V30.501H71.7243C71.6643 30.501 71.6133 30.483 71.5713 30.447C71.5353 30.405 71.5173 30.354 71.5173 30.294V29.916C71.5173 29.856 71.5353 29.805 71.5713 29.763C71.6133 29.721 71.6643 29.7 71.7243 29.7H76.0623C76.1283 29.7 76.1793 29.721 76.2153 29.763C76.2573 29.799 76.2783 29.85 76.2783 29.916V30.294C76.2783 30.354 76.2573 30.405 76.2153 30.447C76.1733 30.483 76.1223 30.501 76.0623 30.501H74.3433V35.793C74.3433 35.853 74.3223 35.904 74.2803 35.946C74.2383 35.982 74.1873 36 74.1273 36H73.6593ZM80.9083 36.09C80.1043 36.09 79.4923 35.874 79.0723 35.442C78.6583 35.01 78.4363 34.413 78.4063 33.651C78.4003 33.489 78.3973 33.225 78.3973 32.859C78.3973 32.487 78.4003 32.217 78.4063 32.049C78.4363 31.293 78.6613 30.699 79.0813 30.267C79.5013 29.829 80.1103 29.61 80.9083 29.61C81.4423 29.61 81.8953 29.706 82.2673 29.898C82.6393 30.084 82.9213 30.33 83.1133 30.636C83.3053 30.942 83.4103 31.269 83.4283 31.617V31.635C83.4283 31.683 83.4073 31.725 83.3653 31.761C83.3293 31.791 83.2873 31.806 83.2393 31.806H82.7443C82.6243 31.806 82.5493 31.737 82.5193 31.599C82.4173 31.149 82.2343 30.834 81.9703 30.654C81.7063 30.468 81.3523 30.375 80.9083 30.375C79.8763 30.375 79.3423 30.948 79.3063 32.094C79.3003 32.256 79.2973 32.505 79.2973 32.841C79.2973 33.177 79.3003 33.432 79.3063 33.606C79.3423 34.752 79.8763 35.325 80.9083 35.325C81.3523 35.325 81.7063 35.235 81.9703 35.055C82.2403 34.869 82.4233 34.551 82.5193 34.101C82.5373 34.023 82.5643 33.969 82.6003 33.939C82.6363 33.909 82.6843 33.894 82.7443 33.894H83.2393C83.2933 33.894 83.3383 33.912 83.3743 33.948C83.4163 33.978 83.4343 34.02 83.4283 34.074C83.4103 34.428 83.3053 34.758 83.1133 35.064C82.9213 35.37 82.6393 35.619 82.2673 35.811C81.8953 35.997 81.4423 36.09 80.9083 36.09ZM86.3265 36C86.2665 36 86.2155 35.982 86.1735 35.946C86.1375 35.904 86.1195 35.853 86.1195 35.793V29.916C86.1195 29.85 86.1375 29.799 86.1735 29.763C86.2155 29.721 86.2665 29.7 86.3265 29.7H86.7855C86.8515 29.7 86.9025 29.721 86.9385 29.763C86.9805 29.799 87.0015 29.85 87.0015 29.916V32.4H90.0975V29.916C90.0975 29.85 90.1155 29.799 90.1515 29.763C90.1935 29.721 90.2445 29.7 90.3045 29.7H90.7635C90.8295 29.7 90.8805 29.721 90.9165 29.763C90.9585 29.799 90.9795 29.85 90.9795 29.916V35.793C90.9795 35.853 90.9585 35.904 90.9165 35.946C90.8745 35.982 90.8235 36 90.7635 36H90.3045C90.2445 36 90.1935 35.982 90.1515 35.946C90.1155 35.904 90.0975 35.853 90.0975 35.793V33.21H87.0015V35.793C87.0015 35.853 86.9805 35.904 86.9385 35.946C86.8965 35.982 86.8455 36 86.7855 36H86.3265ZM99.3462 36C99.1842 36 99.0732 35.922 99.0132 35.766L97.0062 29.979L96.9882 29.88C96.9882 29.832 97.0062 29.79 97.0422 29.754C97.0782 29.718 97.1202 29.7 97.1682 29.7H97.6362C97.7502 29.7 97.8312 29.754 97.8792 29.862L99.6343 34.965L101.398 29.862C101.41 29.826 101.437 29.79 101.479 29.754C101.521 29.718 101.572 29.7 101.632 29.7H102.1C102.148 29.7 102.19 29.718 102.226 29.754C102.268 29.79 102.289 29.832 102.289 29.88L102.271 29.979L100.255 35.766C100.195 35.922 100.087 36 99.9312 36H99.3462ZM105.064 36C105.004 36 104.953 35.982 104.911 35.946C104.875 35.904 104.857 35.853 104.857 35.793V29.907C104.857 29.847 104.875 29.799 104.911 29.763C104.953 29.721 105.004 29.7 105.064 29.7H105.541C105.601 29.7 105.649 29.721 105.685 29.763C105.727 29.799 105.748 29.847 105.748 29.907V35.793C105.748 35.853 105.727 35.904 105.685 35.946C105.649 35.982 105.601 36 105.541 36H105.064ZM109.01 36C108.95 36 108.899 35.982 108.857 35.946C108.821 35.904 108.803 35.853 108.803 35.793V29.916C108.803 29.85 108.821 29.799 108.857 29.763C108.899 29.721 108.95 29.7 109.01 29.7H111.053C111.959 29.7 112.613 29.904 113.015 30.312C113.417 30.714 113.627 31.323 113.645 32.139C113.651 32.313 113.654 32.547 113.654 32.841C113.654 33.135 113.651 33.372 113.645 33.552C113.627 34.122 113.531 34.587 113.357 34.947C113.189 35.301 112.922 35.565 112.556 35.739C112.19 35.913 111.704 36 111.098 36H109.01ZM111.053 35.235C111.467 35.235 111.794 35.178 112.034 35.064C112.28 34.95 112.457 34.77 112.565 34.524C112.679 34.272 112.742 33.936 112.754 33.516C112.766 33.156 112.772 32.931 112.772 32.841C112.772 32.745 112.766 32.523 112.754 32.175C112.742 31.581 112.601 31.149 112.331 30.879C112.061 30.603 111.62 30.465 111.008 30.465H109.685V35.235H111.053ZM116.7 36C116.64 36 116.589 35.982 116.547 35.946C116.511 35.904 116.493 35.853 116.493 35.793V29.916C116.493 29.85 116.511 29.799 116.547 29.763C116.589 29.721 116.64 29.7 116.7 29.7H120.417C120.477 29.7 120.525 29.721 120.561 29.763C120.603 29.799 120.624 29.85 120.624 29.916V30.258C120.624 30.318 120.606 30.369 120.57 30.411C120.534 30.447 120.483 30.465 120.417 30.465H117.357V32.436H120.219C120.279 32.436 120.327 32.457 120.363 32.499C120.405 32.535 120.426 32.586 120.426 32.652V32.985C120.426 33.045 120.405 33.096 120.363 33.138C120.327 33.174 120.279 33.192 120.219 33.192H117.357V35.235H120.489C120.555 35.235 120.606 35.253 120.642 35.289C120.678 35.325 120.696 35.376 120.696 35.442V35.793C120.696 35.853 120.675 35.904 120.633 35.946C120.597 35.982 120.549 36 120.489 36H116.7ZM125.642 36.09C124.856 36.09 124.247 35.886 123.815 35.478C123.389 35.064 123.164 34.443 123.14 33.615C123.134 33.435 123.131 33.18 123.131 32.85C123.131 32.52 123.134 32.268 123.14 32.094C123.164 31.284 123.398 30.669 123.842 30.249C124.286 29.823 124.886 29.61 125.642 29.61C126.392 29.61 126.989 29.823 127.433 30.249C127.877 30.669 128.111 31.284 128.135 32.094C128.147 32.442 128.153 32.694 128.153 32.85C128.153 33 128.147 33.255 128.135 33.615C128.111 34.443 127.883 35.064 127.451 35.478C127.025 35.886 126.422 36.09 125.642 36.09ZM125.642 35.325C126.116 35.325 126.494 35.181 126.776 34.893C127.058 34.605 127.211 34.164 127.235 33.57C127.247 33.21 127.253 32.97 127.253 32.85C127.253 32.718 127.247 32.478 127.235 32.13C127.211 31.536 127.055 31.095 126.767 30.807C126.485 30.519 126.11 30.375 125.642 30.375C125.168 30.375 124.787 30.519 124.499 30.807C124.217 31.095 124.064 31.536 124.04 32.13C124.034 32.304 124.031 32.544 124.031 32.85C124.031 33.15 124.034 33.39 124.04 33.57C124.064 34.164 124.217 34.605 124.499 34.893C124.787 35.181 125.168 35.325 125.642 35.325Z" fill="black"/>
<path d="M60.056 18.13C59.3367 18.13 58.7127 18.0173 58.184 17.792C57.664 17.5667 57.2653 17.272 56.988 16.908C56.7107 16.5353 56.5633 16.1367 56.546 15.712C56.546 15.6427 56.572 15.582 56.624 15.53C56.6847 15.4693 56.754 15.439 56.832 15.439H57.495C57.6597 15.439 57.7723 15.5257 57.833 15.699C57.911 16.063 58.132 16.375 58.496 16.635C58.8687 16.895 59.3887 17.025 60.056 17.025C60.7753 17.025 61.317 16.8993 61.681 16.648C62.045 16.388 62.227 16.0283 62.227 15.569C62.227 15.2743 62.136 15.036 61.954 14.854C61.7807 14.672 61.5207 14.5117 61.174 14.373C60.8273 14.2343 60.3073 14.061 59.614 13.853C58.938 13.6623 58.4007 13.4587 58.002 13.242C57.6033 13.0253 57.3043 12.7567 57.105 12.436C56.9057 12.1153 56.806 11.7123 56.806 11.227C56.806 10.759 56.9317 10.3387 57.183 9.966C57.443 9.59333 57.8113 9.303 58.288 9.095C58.7647 8.87833 59.3323 8.77 59.991 8.77C60.667 8.77 61.2477 8.89133 61.733 9.134C62.2183 9.368 62.5867 9.667 62.838 10.031C63.0893 10.395 63.2237 10.759 63.241 11.123C63.241 11.1923 63.215 11.253 63.163 11.305C63.1197 11.357 63.0547 11.383 62.968 11.383H62.279C62.097 11.383 61.9843 11.3007 61.941 11.136C61.889 10.772 61.6853 10.473 61.33 10.239C60.9747 9.99633 60.5283 9.875 59.991 9.875C59.4017 9.875 58.938 9.98767 58.6 10.213C58.262 10.4383 58.093 10.772 58.093 11.214C58.093 11.5087 58.171 11.7513 58.327 11.942C58.4917 12.1327 58.7387 12.3017 59.068 12.449C59.3973 12.5877 59.8783 12.748 60.511 12.93C61.2477 13.1293 61.8283 13.3373 62.253 13.554C62.6777 13.762 62.994 14.0263 63.202 14.347C63.41 14.659 63.514 15.0577 63.514 15.543C63.514 16.349 63.202 16.9817 62.578 17.441C61.954 17.9003 61.1133 18.13 60.056 18.13ZM68.7279 18C67.3586 18 66.6739 17.2373 66.6739 15.712V12.28H65.6599C65.5732 12.28 65.4996 12.254 65.4389 12.202C65.3869 12.1413 65.3609 12.0677 65.3609 11.981V11.539C65.3609 11.4523 65.3869 11.383 65.4389 11.331C65.4996 11.2703 65.5732 11.24 65.6599 11.24H66.6739V9.069C66.6739 8.98233 66.6999 8.913 66.7519 8.861C66.8126 8.80033 66.8862 8.77 66.9729 8.77H67.5839C67.6706 8.77 67.7399 8.80033 67.7919 8.861C67.8526 8.913 67.8829 8.98233 67.8829 9.069V11.24H69.4949C69.5816 11.24 69.6509 11.2703 69.7029 11.331C69.7636 11.383 69.7939 11.4523 69.7939 11.539V11.981C69.7939 12.0677 69.7636 12.1413 69.7029 12.202C69.6509 12.254 69.5816 12.28 69.4949 12.28H67.8829V15.621C67.8829 16.0543 67.9566 16.3837 68.1039 16.609C68.2512 16.8257 68.4939 16.934 68.8319 16.934H69.6249C69.7116 16.934 69.7809 16.9643 69.8329 17.025C69.8936 17.077 69.9239 17.1463 69.9239 17.233V17.701C69.9239 17.7877 69.8936 17.8613 69.8329 17.922C69.7809 17.974 69.7116 18 69.6249 18H68.7279ZM74.092 18.13C73.6674 18.13 73.273 18.0433 72.909 17.87C72.545 17.6967 72.2547 17.4627 72.038 17.168C71.83 16.8647 71.726 16.531 71.726 16.167C71.726 15.595 71.96 15.127 72.428 14.763C72.9047 14.3903 73.546 14.1477 74.352 14.035L76.289 13.762V13.385C76.289 12.501 75.782 12.059 74.768 12.059C74.3867 12.059 74.0747 12.1413 73.832 12.306C73.5894 12.462 73.4074 12.6483 73.286 12.865C73.26 12.943 73.2254 12.9993 73.182 13.034C73.1474 13.0687 73.0954 13.086 73.026 13.086H72.467C72.389 13.086 72.3197 13.06 72.259 13.008C72.207 12.9473 72.181 12.878 72.181 12.8C72.1897 12.592 72.285 12.358 72.467 12.098C72.6577 11.8293 72.948 11.5997 73.338 11.409C73.728 11.2097 74.209 11.11 74.781 11.11C75.7517 11.11 76.4494 11.3397 76.874 11.799C77.2987 12.2497 77.511 12.813 77.511 13.489V17.701C77.511 17.7877 77.4807 17.8613 77.42 17.922C77.368 17.974 77.2987 18 77.212 18H76.614C76.5274 18 76.4537 17.974 76.393 17.922C76.341 17.8613 76.315 17.7877 76.315 17.701V17.142C76.1244 17.4193 75.847 17.6533 75.483 17.844C75.119 18.0347 74.6554 18.13 74.092 18.13ZM74.365 17.155C74.9284 17.155 75.3877 16.973 75.743 16.609C76.107 16.2363 76.289 15.7033 76.289 15.01V14.646L74.781 14.867C74.1657 14.9537 73.702 15.101 73.39 15.309C73.078 15.5083 72.922 15.764 72.922 16.076C72.922 16.4227 73.065 16.6913 73.351 16.882C73.637 17.064 73.975 17.155 74.365 17.155ZM81.4632 20.47C81.3939 20.47 81.3332 20.444 81.2812 20.392C81.2292 20.34 81.2032 20.2793 81.2032 20.21C81.2032 20.1493 81.2249 20.0713 81.2682 19.976L82.2692 17.597L79.7862 11.734C79.7429 11.6213 79.7212 11.5477 79.7212 11.513C79.7212 11.435 79.7472 11.37 79.7992 11.318C79.8512 11.266 79.9162 11.24 79.9942 11.24H80.6312C80.7699 11.24 80.8739 11.3137 80.9432 11.461L82.9192 16.193L84.9472 11.461C85.0166 11.3137 85.1249 11.24 85.2722 11.24H85.8832C85.9612 11.24 86.0262 11.266 86.0782 11.318C86.1302 11.37 86.1562 11.4307 86.1562 11.5C86.1562 11.526 86.1346 11.604 86.0912 11.734L82.3992 20.249C82.3299 20.3963 82.2216 20.47 82.0742 20.47H81.4632ZM94.7168 18.13C94.1102 18.13 93.5988 18.0347 93.1828 17.844C92.7755 17.6447 92.4678 17.4193 92.2598 17.168C92.0605 16.9167 91.9608 16.7087 91.9608 16.544C91.9608 16.4573 91.9912 16.3923 92.0518 16.349C92.1212 16.297 92.1905 16.271 92.2598 16.271H92.8448C92.9315 16.271 93.0095 16.3143 93.0788 16.401C93.2868 16.6437 93.5122 16.8343 93.7548 16.973C93.9975 17.1117 94.3225 17.181 94.7298 17.181C95.1805 17.181 95.5445 17.0943 95.8218 16.921C96.1078 16.739 96.2508 16.492 96.2508 16.18C96.2508 15.972 96.1902 15.803 96.0688 15.673C95.9562 15.5343 95.7568 15.4173 95.4708 15.322C95.1935 15.218 94.7775 15.1053 94.2228 14.984C93.4688 14.8193 92.9315 14.581 92.6108 14.269C92.2988 13.957 92.1428 13.554 92.1428 13.06C92.1428 12.7307 92.2382 12.4187 92.4288 12.124C92.6282 11.8207 92.9142 11.578 93.2868 11.396C93.6682 11.2053 94.1232 11.11 94.6518 11.11C95.2065 11.11 95.6788 11.201 96.0688 11.383C96.4588 11.565 96.7492 11.7817 96.9398 12.033C97.1392 12.2757 97.2388 12.4793 97.2388 12.644C97.2388 12.722 97.2085 12.787 97.1478 12.839C97.0958 12.891 97.0308 12.917 96.9528 12.917H96.4068C96.3028 12.917 96.2162 12.8737 96.1468 12.787C96.0082 12.6223 95.8868 12.4967 95.7828 12.41C95.6875 12.3147 95.5445 12.2323 95.3538 12.163C95.1718 12.0937 94.9378 12.059 94.6518 12.059C94.2358 12.059 93.9152 12.15 93.6898 12.332C93.4645 12.5053 93.3518 12.735 93.3518 13.021C93.3518 13.203 93.3995 13.359 93.4948 13.489C93.5902 13.6103 93.7722 13.723 94.0408 13.827C94.3182 13.931 94.7168 14.0393 95.2368 14.152C96.0602 14.3253 96.6408 14.5767 96.9788 14.906C97.3255 15.2267 97.4988 15.6383 97.4988 16.141C97.4988 16.5137 97.3905 16.8517 97.1738 17.155C96.9572 17.4583 96.6365 17.6967 96.2118 17.87C95.7958 18.0433 95.2975 18.13 94.7168 18.13ZM101.929 18.13C101.504 18.13 101.11 18.0433 100.746 17.87C100.382 17.6967 100.091 17.4627 99.8748 17.168C99.6668 16.8647 99.5628 16.531 99.5628 16.167C99.5628 15.595 99.7968 15.127 100.265 14.763C100.741 14.3903 101.383 14.1477 102.189 14.035L104.126 13.762V13.385C104.126 12.501 103.619 12.059 102.605 12.059C102.223 12.059 101.911 12.1413 101.669 12.306C101.426 12.462 101.244 12.6483 101.123 12.865C101.097 12.943 101.062 12.9993 101.019 13.034C100.984 13.0687 100.932 13.086 100.863 13.086H100.304C100.226 13.086 100.156 13.06 100.096 13.008C100.044 12.9473 100.018 12.878 100.018 12.8C100.026 12.592 100.122 12.358 100.304 12.098C100.494 11.8293 100.785 11.5997 101.175 11.409C101.565 11.2097 102.046 11.11 102.618 11.11C103.588 11.11 104.286 11.3397 104.711 11.799C105.135 12.2497 105.348 12.813 105.348 13.489V17.701C105.348 17.7877 105.317 17.8613 105.257 17.922C105.205 17.974 105.135 18 105.049 18H104.451C104.364 18 104.29 17.974 104.23 17.922C104.178 17.8613 104.152 17.7877 104.152 17.701V17.142C103.961 17.4193 103.684 17.6533 103.32 17.844C102.956 18.0347 102.492 18.13 101.929 18.13ZM102.202 17.155C102.765 17.155 103.224 16.973 103.58 16.609C103.944 16.2363 104.126 15.7033 104.126 15.01V14.646L102.618 14.867C102.002 14.9537 101.539 15.101 101.227 15.309C100.915 15.5083 100.759 15.764 100.759 16.076C100.759 16.4227 100.902 16.6913 101.188 16.882C101.474 17.064 101.812 17.155 102.202 17.155ZM109.168 18C109.082 18 109.008 17.974 108.947 17.922C108.895 17.8613 108.869 17.7877 108.869 17.701V12.28H107.764C107.678 12.28 107.604 12.254 107.543 12.202C107.491 12.1413 107.465 12.0677 107.465 11.981V11.539C107.465 11.4523 107.491 11.383 107.543 11.331C107.604 11.2703 107.678 11.24 107.764 11.24H108.869V10.59C108.869 9.11667 109.615 8.38 111.105 8.38H111.885C111.972 8.38 112.041 8.41033 112.093 8.471C112.154 8.523 112.184 8.59233 112.184 8.679V9.121C112.184 9.20767 112.154 9.28133 112.093 9.342C112.041 9.394 111.972 9.42 111.885 9.42H111.131C110.741 9.42 110.468 9.524 110.312 9.732C110.156 9.93133 110.078 10.239 110.078 10.655V11.24H111.755C111.842 11.24 111.911 11.2703 111.963 11.331C112.024 11.383 112.054 11.4523 112.054 11.539V11.981C112.054 12.0677 112.024 12.1413 111.963 12.202C111.911 12.254 111.842 12.28 111.755 12.28H110.078V17.701C110.078 17.7877 110.048 17.8613 109.987 17.922C109.935 17.974 109.866 18 109.779 18H109.168ZM116.812 18.13C115.92 18.13 115.205 17.857 114.667 17.311C114.139 16.7563 113.848 16.0023 113.796 15.049L113.783 14.607L113.796 14.178C113.857 13.242 114.152 12.4967 114.68 11.942C115.218 11.3873 115.924 11.11 116.799 11.11C117.761 11.11 118.507 11.4177 119.035 12.033C119.564 12.6397 119.828 13.463 119.828 14.503V14.724C119.828 14.8107 119.798 14.8843 119.737 14.945C119.685 14.997 119.616 15.023 119.529 15.023H115.031V15.14C115.057 15.7033 115.226 16.1843 115.538 16.583C115.859 16.973 116.279 17.168 116.799 17.168C117.198 17.168 117.523 17.09 117.774 16.934C118.034 16.7693 118.225 16.6003 118.346 16.427C118.424 16.323 118.481 16.2623 118.515 16.245C118.559 16.219 118.632 16.206 118.736 16.206H119.373C119.451 16.206 119.516 16.2277 119.568 16.271C119.62 16.3143 119.646 16.375 119.646 16.453C119.646 16.6437 119.525 16.8733 119.282 17.142C119.048 17.4107 118.715 17.6447 118.281 17.844C117.857 18.0347 117.367 18.13 116.812 18.13ZM118.593 14.126V14.087C118.593 13.489 118.429 13.0037 118.099 12.631C117.779 12.2497 117.345 12.059 116.799 12.059C116.253 12.059 115.82 12.2497 115.499 12.631C115.187 13.0037 115.031 13.489 115.031 14.087V14.126H118.593ZM128.138 18C128.026 18 127.939 17.974 127.878 17.922C127.818 17.87 127.766 17.7877 127.722 17.675L125.876 11.643L125.85 11.513C125.85 11.435 125.876 11.37 125.928 11.318C125.989 11.266 126.054 11.24 126.123 11.24H126.695C126.782 11.24 126.851 11.266 126.903 11.318C126.964 11.3613 127.003 11.409 127.02 11.461L128.463 16.362L130.01 11.513C130.028 11.4437 130.067 11.383 130.127 11.331C130.188 11.2703 130.27 11.24 130.374 11.24H130.816C130.92 11.24 131.003 11.2703 131.063 11.331C131.124 11.383 131.163 11.4437 131.18 11.513L132.727 16.362L134.17 11.461C134.179 11.4177 134.209 11.37 134.261 11.318C134.322 11.266 134.396 11.24 134.482 11.24H135.067C135.137 11.24 135.197 11.266 135.249 11.318C135.301 11.37 135.327 11.435 135.327 11.513L135.301 11.643L133.468 17.675C133.425 17.7877 133.373 17.87 133.312 17.922C133.252 17.974 133.161 18 133.039 18H132.532C132.298 18 132.155 17.8917 132.103 17.675L130.595 13.021L129.087 17.675C129.018 17.8917 128.871 18 128.645 18H128.138ZM138.002 9.979C137.916 9.979 137.842 9.953 137.781 9.901C137.729 9.84033 137.703 9.76667 137.703 9.68V8.978C137.703 8.89133 137.729 8.81767 137.781 8.757C137.842 8.69633 137.916 8.666 138.002 8.666H138.821C138.908 8.666 138.982 8.69633 139.042 8.757C139.103 8.81767 139.133 8.89133 139.133 8.978V9.68C139.133 9.76667 139.103 9.84033 139.042 9.901C138.982 9.953 138.908 9.979 138.821 9.979H138.002ZM138.106 18C138.02 18 137.946 17.974 137.885 17.922C137.833 17.8613 137.807 17.7877 137.807 17.701V11.539C137.807 11.4523 137.833 11.383 137.885 11.331C137.946 11.2703 138.02 11.24 138.106 11.24H138.73C138.817 11.24 138.886 11.2703 138.938 11.331C138.999 11.383 139.029 11.4523 139.029 11.539V17.701C139.029 17.7877 138.999 17.8613 138.938 17.922C138.886 17.974 138.817 18 138.73 18H138.106ZM144.635 18C143.265 18 142.581 17.2373 142.581 15.712V12.28H141.567C141.48 12.28 141.406 12.254 141.346 12.202C141.294 12.1413 141.268 12.0677 141.268 11.981V11.539C141.268 11.4523 141.294 11.383 141.346 11.331C141.406 11.2703 141.48 11.24 141.567 11.24H142.581V9.069C142.581 8.98233 142.607 8.913 142.659 8.861C142.719 8.80033 142.793 8.77 142.88 8.77H143.491C143.577 8.77 143.647 8.80033 143.699 8.861C143.759 8.913 143.79 8.98233 143.79 9.069V11.24H145.402C145.488 11.24 145.558 11.2703 145.61 11.331C145.67 11.383 145.701 11.4523 145.701 11.539V11.981C145.701 12.0677 145.67 12.1413 145.61 12.202C145.558 12.254 145.488 12.28 145.402 12.28H143.79V15.621C143.79 16.0543 143.863 16.3837 144.011 16.609C144.158 16.8257 144.401 16.934 144.739 16.934H145.532C145.618 16.934 145.688 16.9643 145.74 17.025C145.8 17.077 145.831 17.1463 145.831 17.233V17.701C145.831 17.7877 145.8 17.8613 145.74 17.922C145.688 17.974 145.618 18 145.532 18H144.635ZM148.426 18C148.339 18 148.265 17.974 148.205 17.922C148.153 17.8613 148.127 17.7877 148.127 17.701V9.069C148.127 8.98233 148.153 8.913 148.205 8.861C148.265 8.80033 148.339 8.77 148.426 8.77H149.076C149.162 8.77 149.232 8.80033 149.284 8.861C149.344 8.913 149.375 8.98233 149.375 9.069V12.098C149.626 11.7773 149.921 11.5347 150.259 11.37C150.597 11.1967 151.017 11.11 151.52 11.11C152.352 11.11 152.997 11.3787 153.457 11.916C153.925 12.4447 154.159 13.151 154.159 14.035V17.701C154.159 17.7877 154.128 17.8613 154.068 17.922C154.016 17.974 153.946 18 153.86 18H153.21C153.123 18 153.049 17.974 152.989 17.922C152.937 17.8613 152.911 17.7877 152.911 17.701V14.1C152.911 13.4847 152.759 13.008 152.456 12.67C152.161 12.332 151.732 12.163 151.169 12.163C150.623 12.163 150.185 12.3363 149.856 12.683C149.535 13.021 149.375 13.4933 149.375 14.1V17.701C149.375 17.7877 149.344 17.8613 149.284 17.922C149.232 17.974 149.162 18 149.076 18H148.426ZM164.786 18.13C163.651 18.13 162.767 17.8223 162.134 17.207C161.51 16.583 161.177 15.7337 161.133 14.659C161.125 14.399 161.12 13.9917 161.12 13.437C161.12 12.8737 161.125 12.4663 161.133 12.215C161.177 11.149 161.515 10.3083 162.147 9.693C162.78 9.07767 163.66 8.77 164.786 8.77C165.549 8.77 166.195 8.90867 166.723 9.186C167.261 9.45467 167.664 9.784 167.932 10.174C168.201 10.564 168.344 10.928 168.361 11.266V11.292C168.361 11.3613 168.335 11.4177 168.283 11.461C168.231 11.5043 168.166 11.526 168.088 11.526H167.321C167.235 11.526 167.17 11.513 167.126 11.487C167.092 11.4523 167.057 11.3873 167.022 11.292C166.892 10.902 166.641 10.5683 166.268 10.291C165.904 10.0137 165.41 9.875 164.786 9.875C164.067 9.875 163.504 10.07 163.096 10.46C162.689 10.85 162.468 11.4567 162.433 12.28C162.425 12.5313 162.42 12.917 162.42 13.437C162.42 13.9483 162.425 14.334 162.433 14.594C162.468 15.426 162.689 16.0413 163.096 16.44C163.504 16.83 164.067 17.025 164.786 17.025C165.514 17.025 166.095 16.8257 166.528 16.427C166.962 16.0283 167.178 15.4303 167.178 14.633V14.087H165.228C165.142 14.087 165.068 14.061 165.007 14.009C164.955 13.9483 164.929 13.8703 164.929 13.775V13.359C164.929 13.2723 164.955 13.1987 165.007 13.138C165.068 13.0773 165.142 13.047 165.228 13.047H168.166C168.253 13.047 168.322 13.0773 168.374 13.138C168.435 13.19 168.465 13.2637 168.465 13.359V14.607C168.465 15.3177 168.318 15.9373 168.023 16.466C167.729 16.9947 167.304 17.4063 166.749 17.701C166.195 17.987 165.54 18.13 164.786 18.13ZM173.96 18.13C173.007 18.13 172.266 17.8613 171.737 17.324C171.217 16.7867 170.94 16.0717 170.905 15.179L170.892 14.62L170.905 14.061C170.94 13.177 171.221 12.4663 171.75 11.929C172.279 11.383 173.015 11.11 173.96 11.11C174.905 11.11 175.641 11.383 176.17 11.929C176.699 12.4663 176.98 13.177 177.015 14.061C177.024 14.1563 177.028 14.3427 177.028 14.62C177.028 14.8973 177.024 15.0837 177.015 15.179C176.98 16.0717 176.699 16.7867 176.17 17.324C175.65 17.8613 174.913 18.13 173.96 18.13ZM173.96 17.129C174.506 17.129 174.935 16.9557 175.247 16.609C175.568 16.2623 175.741 15.764 175.767 15.114C175.776 15.0273 175.78 14.8627 175.78 14.62C175.78 14.3773 175.776 14.2127 175.767 14.126C175.741 13.476 175.568 12.9777 175.247 12.631C174.935 12.2843 174.506 12.111 173.96 12.111C173.414 12.111 172.981 12.2843 172.66 12.631C172.339 12.9777 172.17 13.476 172.153 14.126L172.14 14.62L172.153 15.114C172.17 15.764 172.339 16.2623 172.66 16.609C172.981 16.9557 173.414 17.129 173.96 17.129ZM183.141 18.13C181.979 18.13 181.095 17.818 180.489 17.194C179.891 16.57 179.57 15.7077 179.527 14.607C179.518 14.373 179.514 13.9917 179.514 13.463C179.514 12.9257 179.518 12.5357 179.527 12.293C179.57 11.201 179.895 10.343 180.502 9.719C181.108 9.08633 181.988 8.77 183.141 8.77C183.912 8.77 184.566 8.90867 185.104 9.186C185.641 9.45467 186.048 9.81 186.326 10.252C186.603 10.694 186.755 11.1663 186.781 11.669V11.695C186.781 11.7643 186.75 11.825 186.69 11.877C186.638 11.9203 186.577 11.942 186.508 11.942H185.793C185.619 11.942 185.511 11.8423 185.468 11.643C185.32 10.993 185.056 10.538 184.675 10.278C184.293 10.0093 183.782 9.875 183.141 9.875C181.65 9.875 180.879 10.7027 180.827 12.358C180.818 12.592 180.814 12.9517 180.814 13.437C180.814 13.9223 180.818 14.2907 180.827 14.542C180.879 16.1973 181.65 17.025 183.141 17.025C183.782 17.025 184.293 16.895 184.675 16.635C185.065 16.3663 185.329 15.907 185.468 15.257C185.494 15.1443 185.533 15.0663 185.585 15.023C185.637 14.9797 185.706 14.958 185.793 14.958H186.508C186.586 14.958 186.651 14.984 186.703 15.036C186.763 15.0793 186.789 15.14 186.781 15.218C186.755 15.7293 186.603 16.206 186.326 16.648C186.048 17.09 185.641 17.4497 185.104 17.727C184.566 17.9957 183.912 18.13 183.141 18.13ZM192.163 18.13C191.21 18.13 190.469 17.8613 189.94 17.324C189.42 16.7867 189.143 16.0717 189.108 15.179L189.095 14.62L189.108 14.061C189.143 13.177 189.424 12.4663 189.953 11.929C190.482 11.383 191.218 11.11 192.163 11.11C193.108 11.11 193.844 11.383 194.373 11.929C194.902 12.4663 195.183 13.177 195.218 14.061C195.227 14.1563 195.231 14.3427 195.231 14.62C195.231 14.8973 195.227 15.0837 195.218 15.179C195.183 16.0717 194.902 16.7867 194.373 17.324C193.853 17.8613 193.116 18.13 192.163 18.13ZM192.163 17.129C192.709 17.129 193.138 16.9557 193.45 16.609C193.771 16.2623 193.944 15.764 193.97 15.114C193.979 15.0273 193.983 14.8627 193.983 14.62C193.983 14.3773 193.979 14.2127 193.97 14.126C193.944 13.476 193.771 12.9777 193.45 12.631C193.138 12.2843 192.709 12.111 192.163 12.111C191.617 12.111 191.184 12.2843 190.863 12.631C190.542 12.9777 190.373 13.476 190.356 14.126L190.343 14.62L190.356 15.114C190.373 15.764 190.542 16.2623 190.863 16.609C191.184 16.9557 191.617 17.129 192.163 17.129ZM198.198 18C198.111 18 198.037 17.974 197.977 17.922C197.925 17.8613 197.899 17.7877 197.899 17.701V11.552C197.899 11.4653 197.925 11.3917 197.977 11.331C198.037 11.2703 198.111 11.24 198.198 11.24H198.796C198.882 11.24 198.956 11.2703 199.017 11.331C199.077 11.3917 199.108 11.4653 199.108 11.552V12.124C199.463 11.5347 200.07 11.24 200.928 11.24H201.435C201.521 11.24 201.591 11.2703 201.643 11.331C201.703 11.383 201.734 11.4523 201.734 11.539V12.072C201.734 12.1587 201.703 12.228 201.643 12.28C201.591 12.332 201.521 12.358 201.435 12.358H200.655C200.187 12.358 199.818 12.4967 199.55 12.774C199.281 13.0427 199.147 13.411 199.147 13.879V17.701C199.147 17.7877 199.116 17.8613 199.056 17.922C198.995 17.974 198.921 18 198.835 18H198.198ZM206.519 18.13C205.566 18.13 204.825 17.8613 204.296 17.324C203.776 16.7867 203.499 16.0717 203.464 15.179L203.451 14.62L203.464 14.061C203.499 13.177 203.781 12.4663 204.309 11.929C204.838 11.383 205.575 11.11 206.519 11.11C207.464 11.11 208.201 11.383 208.729 11.929C209.258 12.4663 209.54 13.177 209.574 14.061C209.583 14.1563 209.587 14.3427 209.587 14.62C209.587 14.8973 209.583 15.0837 209.574 15.179C209.54 16.0717 209.258 16.7867 208.729 17.324C208.209 17.8613 207.473 18.13 206.519 18.13ZM206.519 17.129C207.065 17.129 207.494 16.9557 207.806 16.609C208.127 16.2623 208.3 15.764 208.326 15.114C208.335 15.0273 208.339 14.8627 208.339 14.62C208.339 14.3773 208.335 14.2127 208.326 14.126C208.3 13.476 208.127 12.9777 207.806 12.631C207.494 12.2843 207.065 12.111 206.519 12.111C205.973 12.111 205.54 12.2843 205.219 12.631C204.899 12.9777 204.73 13.476 204.712 14.126L204.699 14.62L204.712 15.114C204.73 15.764 204.899 16.2623 205.219 16.609C205.54 16.9557 205.973 17.129 206.519 17.129ZM212.554 18C212.467 18 212.394 17.974 212.333 17.922C212.281 17.8613 212.255 17.7877 212.255 17.701V11.539C212.255 11.4523 212.281 11.383 212.333 11.331C212.394 11.2703 212.467 11.24 212.554 11.24H213.165C213.252 11.24 213.321 11.2703 213.373 11.331C213.434 11.383 213.464 11.4523 213.464 11.539V12.111C213.715 11.7903 214.01 11.5433 214.348 11.37C214.695 11.1967 215.124 11.11 215.635 11.11C216.467 11.11 217.113 11.3787 217.572 11.916C218.04 12.4447 218.274 13.151 218.274 14.035V17.701C218.274 17.7877 218.244 17.8613 218.183 17.922C218.131 17.974 218.062 18 217.975 18H217.325C217.238 18 217.165 17.974 217.104 17.922C217.052 17.8613 217.026 17.7877 217.026 17.701V14.1C217.026 13.4847 216.874 13.008 216.571 12.67C216.276 12.332 215.847 12.163 215.284 12.163C214.738 12.163 214.305 12.3363 213.984 12.683C213.663 13.021 213.503 13.4933 213.503 14.1V17.701C213.503 17.7877 213.473 17.8613 213.412 17.922C213.36 17.974 213.291 18 213.204 18H212.554ZM223.064 18.13C222.639 18.13 222.245 18.0433 221.881 17.87C221.517 17.6967 221.227 17.4627 221.01 17.168C220.802 16.8647 220.698 16.531 220.698 16.167C220.698 15.595 220.932 15.127 221.4 14.763C221.877 14.3903 222.518 14.1477 223.324 14.035L225.261 13.762V13.385C225.261 12.501 224.754 12.059 223.74 12.059C223.359 12.059 223.047 12.1413 222.804 12.306C222.561 12.462 222.379 12.6483 222.258 12.865C222.232 12.943 222.197 12.9993 222.154 13.034C222.119 13.0687 222.067 13.086 221.998 13.086H221.439C221.361 13.086 221.292 13.06 221.231 13.008C221.179 12.9473 221.153 12.878 221.153 12.8C221.162 12.592 221.257 12.358 221.439 12.098C221.63 11.8293 221.92 11.5997 222.31 11.409C222.7 11.2097 223.181 11.11 223.753 11.11C224.724 11.11 225.421 11.3397 225.846 11.799C226.271 12.2497 226.483 12.813 226.483 13.489V17.701C226.483 17.7877 226.453 17.8613 226.392 17.922C226.34 17.974 226.271 18 226.184 18H225.586C225.499 18 225.426 17.974 225.365 17.922C225.313 17.8613 225.287 17.7877 225.287 17.701V17.142C225.096 17.4193 224.819 17.6533 224.455 17.844C224.091 18.0347 223.627 18.13 223.064 18.13ZM223.337 17.155C223.9 17.155 224.36 16.973 224.715 16.609C225.079 16.2363 225.261 15.7033 225.261 15.01V14.646L223.753 14.867C223.138 14.9537 222.674 15.101 222.362 15.309C222.05 15.5083 221.894 15.764 221.894 16.076C221.894 16.4227 222.037 16.6913 222.323 16.882C222.609 17.064 222.947 17.155 223.337 17.155Z" fill="#B0B0B0"/>
</svg>
